<?xml version="1.0" standalone="no"?>
<!DOCTYPE svg PUBLIC "-//W3C//DTD SVG 20010904//EN"
 "http://www.w3.org/TR/2001/REC-SVG-20010904/DTD/svg10.dtd">
<svg version="1.0" xmlns="http://www.w3.org/2000/svg"
 width="512.000000pt" height="512.000000pt" viewBox="0 0 512.000000 512.000000"
 preserveAspectRatio="xMidYMid meet">
<metadata>
Created by potrace 1.11, written by Peter Selinger 2001-2013
</metadata>
<g transform="translate(0.000000,512.000000) scale(0.100000,-0.100000)"
fill="#000000" stroke="none">
<path d="M1317 4678 c-6 -3 -14 -5 -18 -2 -4 2 -10 -3 -13 -12 -3 -8 -10 -12
-16 -9 -10 6 -14 -7 -11 -32 1 -7 -4 -13 -10 -13 -7 0 -9 -3 -6 -6 3 -4 0 -16
-8 -26 -7 -11 -11 -27 -8 -34 3 -8 0 -14 -7 -14 -6 0 -10 -6 -8 -12 3 -7 -1
-24 -8 -37 -7 -14 -11 -28 -8 -33 3 -4 1 -8 -4 -8 -5 0 -9 -7 -10 -15 -1 -8
-3 -22 -4 -30 -1 -8 -5 -15 -9 -15 -5 0 -6 -7 -3 -15 4 -8 1 -15 -6 -15 -6 0
-9 -4 -5 -9 3 -5 1 -12 -5 -16 -6 -4 -8 -11 -5 -16 4 -5 1 -9 -4 -9 -6 0 -10
-3 -10 -7 1 -5 0 -11 -1 -15 -1 -5 -3 -11 -4 -15 -1 -5 -7 -18 -14 -29 -6 -12
-8 -24 -5 -28 3 -3 2 -6 -3 -6 -5 0 -10 -10 -11 -22 -1 -11 -7 -24 -14 -28 -6
-4 -8 -13 -5 -19 4 -6 2 -11 -4 -11 -6 0 -8 -4 -5 -10 3 -5 1 -10 -5 -10 -6 0
-8 -4 -5 -10 3 -5 1 -10 -5 -10 -6 0 -8 -5 -5 -10 4 -6 1 -17 -5 -25 -7 -8 -9
-15 -5 -15 4 0 2 -7 -5 -15 -7 -8 -10 -15 -7 -15 3 0 0 -20 -7 -45 -8 -25 -12
-45 -9 -45 3 0 0 -6 -6 -13 -6 -8 -8 -17 -4 -20 3 -4 1 -7 -6 -7 -6 0 -11 -6
-10 -12 1 -7 -8 -35 -20 -63 -13 -27 -24 -54 -25 -60 -1 -5 -6 -17 -11 -25 -5
-8 -11 -24 -12 -35 -2 -11 -8 -21 -13 -23 -6 -2 -10 -11 -10 -20 0 -9 -9 -32
-20 -50 -12 -19 -16 -31 -10 -27 6 3 7 0 4 -9 -3 -9 -11 -16 -16 -16 -6 0 -8
-7 -4 -15 3 -8 1 -15 -4 -15 -5 0 -7 -7 -4 -15 4 -8 1 -15 -4 -15 -6 0 -11 -8
-11 -17 0 -24 -5 -45 -14 -60 -5 -7 -5 -13 -1 -13 3 0 1 -7 -6 -15 -7 -8 -9
-15 -5 -15 4 0 2 -7 -5 -15 -7 -8 -10 -15 -6 -15 4 0 -1 -15 -11 -32 -9 -18
-18 -39 -19 -47 -2 -8 -9 -18 -16 -22 -7 -5 -9 -9 -4 -9 5 0 3 -6 -3 -13 -6
-8 -8 -17 -4 -20 3 -4 1 -7 -6 -7 -7 0 -9 -4 -6 -10 3 -5 1 -10 -4 -10 -6 0
-10 -3 -9 -7 2 -11 -14 -47 -24 -54 -5 -3 -10 -16 -11 -27 -1 -12 -5 -22 -10
-22 -4 0 -6 -3 -4 -8 3 -4 -3 -24 -13 -45 -10 -20 -14 -34 -8 -31 5 3 2 -8 -6
-25 -9 -17 -21 -31 -26 -31 -6 0 -10 -3 -9 -7 2 -16 -14 -53 -23 -53 -5 0 -6
-4 -3 -10 3 -5 1 -10 -5 -10 -6 0 -8 -4 -5 -10 3 -5 1 -10 -6 -10 -7 0 -9 -3
-6 -6 4 -4 -3 -20 -15 -37 -12 -17 -16 -27 -9 -23 8 6 7 0 -3 -16 -9 -14 -13
-28 -9 -31 3 -4 1 -7 -6 -7 -7 0 -10 -4 -6 -9 3 -5 1 -12 -5 -16 -6 -4 -8 -10
-5 -15 3 -5 1 -11 -5 -15 -6 -4 -8 -11 -5 -16 4 -5 2 -9 -2 -9 -5 0 -10 -10
-10 -22 -1 -13 -7 -24 -12 -26 -5 -2 -7 -10 -4 -18 3 -8 -1 -14 -8 -14 -7 0
-10 -3 -6 -6 3 -4 0 -19 -9 -35 -8 -16 -12 -29 -8 -29 4 0 1 -6 -5 -13 -6 -8
-8 -17 -4 -20 3 -4 2 -7 -3 -7 -5 0 -16 -21 -23 -47 -8 -27 -18 -54 -24 -60
-5 -7 -7 -13 -3 -13 4 0 0 -13 -8 -29 -9 -16 -12 -31 -9 -35 4 -3 1 -6 -5 -6
-7 0 -11 -3 -11 -7 1 -5 -4 -24 -12 -43 -7 -19 -12 -38 -11 -42 1 -5 -3 -8 -9
-8 -5 0 -7 -4 -4 -10 3 -5 1 -10 -6 -10 -7 0 -10 -3 -6 -6 3 -4 0 -19 -8 -34
-8 -15 -11 -30 -8 -34 4 -3 0 -6 -7 -6 -7 0 -10 -3 -7 -7 4 -3 -1 -15 -10 -26
-10 -11 -12 -17 -6 -13 9 5 11 2 7 -8 -3 -9 -10 -16 -15 -16 -4 0 -5 -7 -2
-17 5 -12 3 -14 -7 -8 -10 6 -12 4 -7 -8 3 -10 2 -17 -4 -17 -6 0 -8 -4 -5 -9
3 -5 -1 -14 -9 -21 -7 -6 -11 -18 -8 -26 3 -8 0 -14 -7 -14 -6 0 -8 -4 -5 -10
3 -5 3 -10 -2 -10 -10 0 -48 -91 -45 -107 2 -7 -2 -13 -9 -13 -6 0 -9 -7 -5
-15 3 -8 1 -15 -5 -15 -6 0 -7 -5 -4 -10 4 -6 1 -17 -5 -25 -7 -8 -9 -15 -4
-15 5 0 2 -5 -6 -10 -11 -7 -11 -10 -2 -10 7 0 11 -3 8 -8 -3 -6 188 -7 285
-1 16 0 76 96 71 112 -1 4 2 7 6 7 10 0 37 50 34 63 -1 4 3 7 9 7 5 0 7 5 4
10 -3 6 -1 10 4 10 6 0 11 7 11 15 0 8 5 15 11 15 5 0 8 4 4 9 -3 5 -1 12 5
16 6 4 8 11 5 16 -4 5 -1 9 4 9 6 0 11 11 11 24 0 14 4 28 10 31 6 3 10 13 10
22 0 9 8 22 17 30 12 10 13 12 3 8 -10 -4 -9 -2 2 8 10 8 15 17 11 20 -3 4 -1
7 6 7 7 0 9 5 6 10 -3 6 -2 10 3 10 6 0 15 14 21 30 5 17 15 30 22 30 7 0 9 3
6 7 -4 3 1 12 11 20 11 10 12 12 2 8 -8 -4 -4 3 10 15 14 12 18 19 10 15 -12
-5 -12 -4 1 7 9 7 17 18 19 23 16 59 36 76 98 82 45 4 71 4 282 2 52 -1 192 2
310 6 330 10 500 8 583 -8 9 -2 25 -13 35 -26 9 -13 27 -34 40 -47 13 -13 20
-24 16 -24 -5 0 1 -7 12 -15 10 -8 15 -15 10 -15 -5 0 1 -12 15 -27 13 -14 17
-23 9 -19 -8 5 -1 -4 15 -19 17 -14 23 -23 15 -19 -8 4 -1 -6 16 -22 17 -16
29 -35 27 -41 -3 -7 0 -13 6 -13 12 0 45 -68 42 -87 -1 -7 3 -13 9 -13 5 0 10
-7 10 -15 0 -8 5 -15 11 -15 5 0 7 -4 4 -10 -3 -5 -1 -10 5 -10 6 0 15 -11 20
-25 5 -14 15 -25 21 -25 7 0 10 -3 6 -6 -3 -4 4 -15 16 -26 12 -11 15 -16 7
-13 -8 4 -1 -5 15 -20 17 -14 23 -24 15 -20 -8 4 -6 -1 4 -9 11 -9 16 -16 10
-16 -5 0 -1 -5 8 -11 10 -5 15 -16 12 -24 -7 -18 -18 -16 169 -17 81 -1 150 2
154 6 3 3 1 6 -6 6 -7 0 -9 5 -6 10 3 6 1 10 -5 10 -6 0 -9 4 -5 9 3 5 1 12
-5 16 -6 4 -8 11 -5 16 4 5 1 9 -5 9 -7 0 -10 7 -6 15 3 8 1 15 -5 15 -6 0 -7
5 -4 10 3 5 1 10 -5 10 -6 0 -8 4 -5 10 3 5 2 10 -2 10 -5 0 -10 10 -10 22 -1
13 -7 24 -13 26 -5 2 -10 10 -10 18 0 8 -11 36 -25 63 -13 27 -21 51 -18 55 4
3 1 6 -6 6 -7 0 -9 5 -6 10 3 6 2 10 -3 10 -5 0 -9 6 -9 13 -1 20 -7 42 -15
47 -3 3 -8 12 -10 20 -2 8 -9 21 -16 28 -7 8 -10 18 -7 23 4 5 1 9 -5 9 -6 0
-8 5 -5 10 3 6 1 10 -4 10 -6 0 -11 9 -11 19 0 11 -4 21 -10 23 -5 2 -11 13
-13 25 -2 12 -6 26 -10 29 -4 4 -7 16 -7 26 0 10 -5 18 -11 18 -5 0 -8 3 -6 8
3 4 0 18 -6 32 -12 29 -18 50 -19 68 -1 6 -6 12 -11 12 -5 0 -7 7 -4 15 4 8 2
17 -4 20 -5 4 -7 11 -4 16 4 5 1 9 -6 9 -7 0 -10 3 -6 6 3 4 0 19 -9 35 -8 16
-14 32 -14 36 -1 16 -25 63 -33 63 -5 0 -5 5 -2 10 3 6 2 10 -3 10 -6 0 -13 7
-16 16 -4 9 -2 13 5 8 6 -3 4 5 -5 18 -9 14 -13 28 -9 31 3 4 1 7 -5 7 -7 0
-12 8 -12 18 0 10 -7 27 -15 38 -8 12 -11 24 -8 28 3 3 0 6 -7 6 -7 0 -10 3
-7 7 4 3 -1 15 -10 26 -13 15 -14 18 -3 12 9 -5 8 0 -4 13 -11 12 -16 22 -12
22 4 0 0 7 -8 16 -9 8 -14 20 -11 25 4 5 1 9 -6 9 -7 0 -10 3 -7 6 4 3 0 21
-8 40 -8 19 -11 34 -8 34 4 0 1 6 -5 13 -6 8 -8 17 -4 20 3 4 1 7 -6 7 -7 0
-11 7 -8 15 4 8 2 17 -4 21 -6 3 -8 12 -5 20 3 8 1 14 -4 14 -5 0 -7 7 -4 15
4 8 1 15 -6 15 -7 0 -10 7 -7 15 4 8 2 17 -4 20 -5 4 -7 11 -4 16 4 5 1 9 -5
9 -7 0 -10 6 -8 12 3 7 -1 19 -9 26 -7 8 -11 18 -8 23 4 5 2 9 -2 9 -5 0 -9
10 -10 22 -1 11 -8 25 -15 29 -7 5 -10 9 -5 9 4 0 1 14 -8 30 -9 17 -12 30 -8
30 4 0 2 5 -4 11 -6 6 -9 18 -6 25 3 8 0 14 -7 14 -6 0 -9 4 -5 9 3 5 1 12 -5
16 -6 4 -8 11 -4 16 3 5 0 16 -6 24 -7 8 -10 15 -7 15 3 0 -1 16 -9 35 -8 19
-11 35 -8 35 4 0 1 7 -6 15 -7 8 -9 15 -5 15 4 0 2 7 -5 15 -6 8 -9 19 -6 24
4 5 2 12 -4 16 -6 4 -8 11 -5 16 4 5 2 9 -3 9 -5 0 -13 15 -17 33 -7 30 -9 36
-15 55 -1 4 -2 10 -1 15 0 4 -3 7 -7 7 -5 0 -9 7 -10 15 -1 8 -3 22 -4 30 -1
8 -5 15 -10 15 -5 0 -7 4 -3 9 3 5 1 12 -5 16 -6 4 -8 11 -5 16 4 5 1 9 -5 9
-6 0 -9 4 -5 9 3 5 1 12 -4 16 -6 3 -8 12 -4 20 3 8 0 15 -6 15 -6 0 -11 6
-11 14 0 7 -7 19 -15 26 -8 7 -13 16 -10 20 3 5 0 10 -5 12 -6 2 -12 13 -13
26 0 12 -6 22 -11 22 -5 0 -7 3 -3 6 3 4 0 19 -8 34 -8 15 -11 30 -8 34 4 3 1
6 -6 6 -8 0 -11 7 -7 15 3 8 1 15 -4 15 -5 0 -7 7 -4 15 4 8 1 15 -7 15 -7 0
-9 3 -6 7 4 3 2 12 -4 20 -6 7 -8 13 -4 13 4 0 2 7 -5 15 -6 8 -9 19 -5 25 3
5 2 10 -4 10 -6 0 -7 7 -4 17 5 12 3 14 -7 8 -10 -6 -12 -4 -7 8 4 10 2 17 -4
17 -6 0 -9 7 -5 15 3 8 0 15 -6 15 -6 0 -8 3 -5 7 4 3 2 12 -4 20 -6 7 -8 13
-4 13 4 0 2 7 -5 15 -7 8 -9 15 -5 15 4 0 3 6 -2 13 -9 11 -21 47 -29 86 -2 8
-6 26 -10 40 -11 38 -11 40 -13 49 -1 9 -258 10 -274 0z m110 -1150 c7 -6 10
-14 7 -19 -3 -5 0 -9 6 -9 6 0 8 -4 5 -10 -3 -5 -1 -10 4 -10 6 0 10 -3 9 -7
-3 -10 34 -86 45 -94 5 -3 7 -8 6 -10 -5 -7 45 -109 53 -109 5 0 7 -4 4 -8 -7
-12 15 -82 26 -82 5 0 6 -4 3 -10 -3 -5 -1 -10 4 -10 6 0 10 -4 9 -8 -4 -10
43 -104 55 -113 5 -3 8 -9 7 -13 -3 -12 25 -66 33 -66 5 0 6 -4 2 -9 -3 -5 2
-17 11 -25 8 -9 13 -16 10 -16 -3 0 6 -22 19 -49 14 -27 25 -53 25 -58 0 -5 9
-19 20 -31 12 -12 17 -22 13 -22 -4 0 -3 -4 2 -8 6 -4 21 -28 34 -54 13 -27
28 -48 32 -48 5 0 6 -7 3 -15 -6 -15 -25 -16 -199 -16 -318 1 -566 1 -605 0
-75 -2 -119 4 -125 19 -2 7 -1 10 4 7 5 -3 15 11 22 30 7 19 17 35 22 35 5 0
7 7 3 15 -3 8 -2 15 2 15 4 0 16 14 26 31 13 22 14 29 5 24 -8 -5 -5 1 5 13
11 12 15 22 10 22 -5 0 -4 4 1 8 18 13 43 67 37 81 -3 9 0 11 8 6 10 -6 12 -4
7 8 -3 10 -3 17 2 17 5 0 14 15 21 33 6 17 18 44 26 58 7 14 11 29 7 33 -3 3
-1 6 5 6 9 0 25 31 27 53 0 4 5 11 11 15 10 7 29 46 22 48 -2 0 5 8 15 18 9
10 17 24 17 32 0 8 7 26 16 39 9 14 13 25 9 25 -3 0 1 7 9 16 9 8 14 20 11 25
-4 5 -1 9 4 9 6 0 10 3 9 8 -1 4 3 17 10 29 6 12 13 30 15 40 6 29 34 90 46
97 6 4 9 11 7 15 -7 11 27 10 41 -1z"/>
<path d="M3260 3488 c0 -4 -3 -7 -7 -6 -16 3 -63 -26 -63 -39 0 -8 -4 -11 -10
-8 -5 3 -10 0 -10 -7 0 -7 -12 -22 -27 -33 -14 -11 -35 -29 -46 -40 -11 -11
-17 -13 -13 -5 7 13 6 13 -6 0 -20 -24 -72 -55 -63 -39 3 8 0 6 -8 -3 -8 -10
-19 -18 -25 -18 -5 0 -13 -7 -16 -16 -4 -9 -9 -14 -12 -11 -4 3 -14 -1 -22
-10 -17 -17 -24 -73 -9 -73 4 0 6 -4 2 -9 -3 -6 3 -14 12 -20 10 -6 14 -11 9
-11 -5 0 1 -9 14 -20 13 -11 19 -20 15 -20 -4 0 5 -11 21 -25 16 -14 25 -25
19 -25 -5 0 5 -9 23 -20 30 -19 46 -38 20 -25 -7 4 -4 -1 6 -9 11 -9 16 -16
10 -16 -5 0 -3 -4 4 -9 7 -4 16 -23 18 -42 3 -19 10 -38 16 -44 8 -7 8 -6 3 4
-4 8 13 -6 38 -30 48 -44 62 -63 30 -38 -10 7 -6 0 10 -17 15 -17 24 -34 20
-38 -5 -4 -3 -6 4 -4 6 2 11 -1 11 -5 1 -5 12 -19 27 -33 14 -13 23 -24 19
-24 -4 0 1 -7 12 -16 10 -8 12 -13 4 -9 -8 4 -6 -1 4 -9 11 -9 16 -16 10 -16
-5 0 2 -10 16 -21 14 -11 18 -18 10 -14 -8 4 -4 -3 9 -14 13 -12 20 -21 16
-21 -5 0 2 -8 13 -19 12 -10 22 -25 22 -33 0 -9 10 -23 23 -32 12 -9 15 -14 7
-11 -8 4 -4 -3 10 -14 14 -11 21 -21 15 -21 -5 0 -2 -5 8 -11 9 -5 17 -19 17
-29 0 -10 5 -22 12 -26 7 -5 8 -3 3 6 -5 9 -4 11 3 6 7 -4 12 -14 12 -22 0 -8
5 -14 11 -14 5 0 7 -4 4 -10 -3 -5 -1 -10 4 -10 6 0 11 -7 11 -15 0 -8 4 -15
10 -15 5 0 12 -11 16 -25 3 -14 10 -22 15 -19 5 3 9 0 9 -7 0 -6 8 -18 18 -26
9 -8 10 -11 2 -7 -8 5 15 -22 52 -58 36 -37 64 -69 60 -72 -3 -3 -1 -6 5 -6 6
0 16 -13 23 -30 7 -16 17 -30 22 -30 5 0 6 -4 3 -10 -3 -5 -1 -10 5 -10 14 0
34 -21 37 -37 2 -7 -8 -24 -22 -39 -14 -15 -22 -30 -20 -35 3 -4 1 -10 -5 -14
-6 -4 -8 -11 -5 -16 4 -5 1 -9 -5 -9 -6 0 -8 -4 -5 -10 3 -5 1 -10 -5 -10 -6
0 -9 -4 -6 -9 3 -5 -1 -11 -9 -15 -8 -3 -15 -15 -15 -26 0 -11 -4 -20 -9 -20
-5 0 -16 -16 -25 -35 -9 -19 -21 -35 -27 -35 -6 0 -7 -4 -4 -10 3 -5 1 -10 -4
-10 -6 0 -11 -7 -11 -15 0 -8 -5 -15 -11 -15 -5 0 -7 -4 -4 -10 3 -5 1 -10 -6
-10 -7 0 -9 -3 -6 -6 4 -4 -6 -18 -21 -32 -15 -13 -20 -21 -12 -17 8 3 6 -1
-4 -9 -11 -9 -16 -16 -11 -16 4 0 1 -8 -8 -18 -10 -10 -15 -21 -12 -24 8 -8
-16 -58 -28 -58 -6 0 -8 -3 -4 -6 3 -3 -4 -16 -16 -28 -12 -11 -23 -28 -25
-36 -2 -8 -14 -25 -28 -38 -13 -14 -24 -29 -24 -34 0 -5 -17 -30 -37 -56 -21
-25 -32 -42 -25 -38 6 4 12 5 12 2 0 -2 -6 -11 -12 -18 -36 -38 -52 -61 -38
-53 8 5 0 -5 -17 -22 -18 -17 -33 -36 -33 -43 0 -6 -4 -8 -10 -5 -5 3 -10 0
-10 -8 0 -8 -7 -18 -16 -21 -8 -3 -12 -10 -9 -16 3 -5 -1 -10 -9 -10 -9 0 -15
-4 -14 -9 2 -5 -6 -17 -17 -26 -11 -9 -13 -14 -5 -10 8 4 5 -2 -7 -13 -12 -11
-19 -22 -16 -26 4 -3 0 -6 -7 -6 -7 0 -10 -3 -7 -7 4 -3 1 -13 -6 -21 -10 -13
-9 -14 3 -7 13 8 13 7 1 -8 -7 -9 -19 -17 -27 -17 -7 0 -16 -5 -20 -12 -5 -7
-2 -8 7 -3 8 4 -4 -10 -26 -31 -23 -22 -32 -32 -21 -24 16 12 15 9 -4 -16 -14
-17 -28 -29 -32 -27 -5 2 -8 -2 -8 -10 0 -8 -7 -18 -16 -21 -9 -4 -14 -9 -11
-12 3 -4 0 -13 -8 -21 -17 -17 -20 -43 -5 -43 6 0 10 -7 10 -16 0 -8 4 -13 9
-9 5 3 17 -5 25 -17 9 -12 16 -18 16 -14 0 5 18 -9 39 -32 21 -22 42 -38 45
-35 3 4 6 1 6 -5 0 -7 7 -12 15 -12 7 0 19 -8 24 -18 6 -9 11 -13 11 -9 0 5
14 -1 30 -13 17 -12 30 -18 30 -15 0 4 7 0 15 -9 14 -14 18 -14 35 1 10 9 17
20 14 25 -3 4 0 8 7 8 7 0 10 3 6 6 -7 7 4 22 48 67 17 17 23 26 15 21 -9 -5
-7 -1 3 8 11 10 15 18 11 18 -5 0 -1 5 9 11 9 6 15 14 12 20 -4 5 -1 9 5 9 6
0 8 5 5 10 -3 6 -1 10 5 10 6 0 8 5 5 10 -3 6 -1 10 4 10 6 0 10 3 9 8 -3 14
15 47 36 65 12 10 14 16 6 12 -8 -4 -6 1 4 9 11 9 16 16 12 16 -4 0 0 7 8 16
9 8 16 22 16 30 0 8 5 14 10 14 6 0 10 7 10 15 0 9 11 20 25 25 14 5 25 12 25
15 0 4 -6 3 -12 0 -7 -4 -2 3 12 15 14 12 25 26 25 30 0 5 13 20 28 34 15 14
25 26 22 26 -3 0 2 13 11 29 10 17 21 28 25 26 4 -3 10 2 13 11 3 8 2 12 -4 9
-6 -3 -7 1 -4 9 3 9 9 14 13 12 4 -3 8 5 8 16 1 12 7 24 14 28 6 4 8 13 5 19
-4 6 -2 11 3 11 6 0 11 7 11 15 0 8 3 15 8 15 4 0 18 18 32 40 14 22 28 40 32
40 5 0 8 6 8 13 0 7 10 24 23 37 12 14 21 28 19 32 -1 5 2 8 8 8 5 0 10 7 10
15 0 9 7 18 15 21 8 4 12 10 9 15 -3 5 0 9 5 9 6 0 11 6 11 14 0 8 7 17 16 20
8 3 12 10 9 16 -3 5 -1 10 4 10 6 0 11 7 11 15 0 8 5 15 10 15 6 0 10 8 10 18
0 10 3 22 8 26 4 4 7 12 7 16 0 5 9 16 20 25 11 9 13 14 5 10 -10 -4 -9 -2 3
8 9 8 17 18 17 22 0 4 21 28 46 52 25 23 43 43 38 43 -4 0 1 7 12 16 10 8 12
12 4 8 -11 -6 -10 -2 3 13 9 11 17 23 17 28 0 4 8 14 18 22 9 8 11 11 3 7 -9
-5 -8 2 5 19 10 15 23 27 27 27 5 0 5 5 2 10 -3 6 -1 10 6 10 7 0 9 3 6 7 -4
3 1 12 11 20 11 10 12 12 2 8 -10 -4 -9 -2 2 8 10 8 15 17 11 20 -3 4 -1 7 6
7 7 0 10 4 7 9 -3 5 1 14 9 21 8 7 12 16 9 21 -3 5 0 9 6 9 6 0 8 5 5 10 -3 6
-1 10 5 10 6 0 9 4 6 8 -3 5 4 14 14 22 10 8 17 17 14 22 -3 4 0 8 6 8 6 0 8
5 5 10 -3 6 -1 10 5 10 6 0 9 4 5 9 -3 6 4 15 15 21 11 6 20 17 20 25 0 8 5
15 12 15 6 0 9 3 5 6 -3 4 11 22 31 42 20 19 30 32 22 27 -8 -4 -4 4 10 20 14
16 19 25 11 20 -9 -5 -8 0 3 17 9 14 13 28 9 31 -3 4 0 7 7 7 7 0 10 3 7 7 -4
3 0 15 10 25 9 10 12 18 8 18 -4 0 2 9 15 20 13 11 19 20 15 20 -5 0 0 7 11
16 10 8 13 12 5 9 -13 -8 12 37 36 63 6 6 15 21 18 32 4 11 11 18 16 15 8 -6
13 8 10 28 0 4 4 7 11 7 6 0 8 3 5 6 -4 4 2 19 13 34 11 15 17 30 13 34 -3 3
0 6 7 6 7 0 11 3 7 6 -5 5 10 27 41 59 6 8 12 18 12 24 0 6 5 11 12 11 6 0 8
3 5 6 -4 4 3 15 15 25 11 11 17 19 13 19 -5 0 4 14 21 32 16 17 22 28 14 24
-8 -4 -6 0 4 8 11 9 16 16 11 16 -4 0 -1 8 8 18 10 10 14 22 10 25 -3 4 -1 7
5 7 7 0 11 4 10 9 -2 5 8 18 21 30 13 12 21 21 17 21 -4 0 4 11 18 23 14 13
23 27 19 30 -3 4 2 9 11 13 9 3 16 12 16 19 0 7 10 20 23 29 12 9 15 14 7 11
-10 -4 -9 -2 2 8 10 8 15 17 11 21 -4 4 -2 10 5 15 8 5 -8 28 -52 74 -35 37
-68 67 -73 67 -6 0 -22 14 -37 32 -14 17 -26 29 -26 24 0 -4 -11 4 -23 18 -13
14 -27 23 -30 19 -4 -3 -7 -2 -7 4 0 9 -14 13 -54 14 -19 0 -63 -39 -59 -53 2
-4 -13 -23 -32 -41 -19 -19 -35 -39 -35 -46 0 -6 -5 -11 -11 -11 -5 0 -8 -4
-4 -9 3 -5 1 -12 -5 -16 -6 -4 -8 -11 -5 -16 4 -5 -1 -12 -9 -15 -9 -3 -13
-10 -10 -15 3 -5 1 -9 -4 -9 -9 0 -37 -50 -34 -62 1 -5 -3 -8 -9 -8 -5 0 -8
-4 -5 -9 3 -5 -1 -14 -9 -21 -8 -7 -12 -16 -9 -21 3 -5 0 -9 -6 -9 -6 0 -8 -4
-5 -10 3 -5 2 -10 -4 -10 -6 0 -13 -11 -17 -24 -3 -14 -12 -27 -21 -30 -8 -3
-11 -10 -8 -16 3 -5 1 -10 -4 -10 -6 0 -11 -7 -11 -15 0 -8 -5 -15 -11 -15 -5
0 -7 -4 -4 -10 3 -5 1 -10 -5 -10 -6 0 -8 -4 -5 -10 3 -5 1 -10 -5 -10 -6 0
-8 -4 -5 -10 3 -5 1 -10 -5 -10 -6 0 -8 -4 -5 -10 3 -5 2 -10 -3 -10 -9 0 -37
-50 -34 -62 1 -5 -3 -8 -9 -8 -5 0 -7 -4 -4 -10 3 -5 1 -10 -5 -10 -6 0 -8 -4
-5 -10 3 -5 1 -10 -5 -10 -6 0 -8 -4 -5 -10 3 -5 1 -10 -5 -10 -6 0 -8 -4 -5
-10 3 -5 1 -10 -4 -10 -6 0 -11 -5 -11 -11 0 -7 -10 -20 -22 -30 -11 -11 -18
-19 -15 -19 4 0 -3 -11 -15 -25 -11 -13 -25 -22 -30 -19 -4 3 -8 -2 -8 -11 0
-8 -9 -23 -19 -32 -11 -9 -18 -20 -15 -25 3 -4 0 -8 -5 -8 -6 0 -11 -7 -11
-15 0 -8 -9 -20 -20 -27 -11 -7 -20 -19 -20 -26 0 -12 -23 -42 -33 -42 -10 0
-47 39 -47 49 0 7 -3 10 -7 8 -10 -5 -63 50 -55 57 3 3 -2 6 -11 6 -8 0 -19 9
-22 20 -3 11 -11 20 -16 20 -5 0 -9 8 -9 18 0 10 -9 24 -19 32 -11 7 -18 17
-15 22 3 4 -1 8 -9 8 -8 0 -18 7 -21 16 -3 8 -10 13 -15 9 -5 -3 -12 4 -16 15
-3 11 -11 20 -16 20 -6 0 -7 5 -4 10 3 6 1 10 -6 10 -7 0 -9 3 -6 6 4 4 -3 15
-15 25 -11 11 -18 19 -14 19 8 0 -7 19 -47 61 -15 16 -24 29 -20 29 4 0 1 6
-8 13 -9 7 -24 29 -33 49 -10 21 -22 35 -27 32 -5 -3 -9 0 -9 6 0 11 -11 26
-45 62 -11 11 -14 17 -6 13 8 -5 3 7 -11 26 -14 19 -23 40 -21 47 3 6 -1 12
-8 12 -7 0 -10 3 -6 6 3 3 -5 16 -17 28 -13 11 -25 26 -26 31 -6 24 -24 55
-32 55 -4 0 -7 3 -7 8 3 16 -1 32 -8 31 -21 -3 -33 3 -33 17 0 8 -3 13 -8 10
-4 -2 -16 13 -26 35 -11 21 -23 39 -28 39 -5 0 -6 5 -3 10 3 6 -1 10 -9 10 -9
0 -16 6 -16 13 0 7 -9 13 -20 13 -11 0 -20 -4 -20 -8z"/>
</g>
</svg>
